**ABCDEFGHIJKLMNOPQRSTUVWXYZabcdefghijklmnopqrstuvwxyz**************************
**PARASOLID !"#$%&'()*+,-./:;<=>?@[\]^_`{|}~0123456789**************************
**PART1;
MC=AMD64;
MC_MODEL=AMD64 Family 23 Model 104 Stepping 1, AuthenticAMD;
MC_ID=unknown;
OS=Windows_NT;
OS_RELEASE=unknown;
FRU=Parasolid Version 34.1, build 247, 10- 7-2022;
APPL=SOLIDWORKS 2023-2023096;
SITE=;
USER=unknown;
FORMAT=text;
GUISE=transmit;
KEY=Tanque;
FILE=Tanque.x_t;
DATE=Thu Oct 23 14:25:24 2025;
**PART2;
SCH=SCH_3401247_34101;
USFLD_SIZE=0;
**PART3;
**END_OF_HEADER*****************************************************************
T51 : TRANSMIT FILE created by modeller version 340124723 SCH_3401247_34101_1300
6231 0 12 36 CCCI7 lattice222 0 CCCI4 mesh1006 0 I8 polyline1008 0 CCCCCCCDI5 ow
ner1040 0 CCCI16 boundary_lattice222 0 CCCI13 boundary_mesh1006 0 I17 boundary_p
olyline1008 0 CCCA16 index_map_offset0 0 1 dA9 index_map82 0 A17 node_id_index_m
ap82 0 A20 schema_embedding_map82 0 A5 child12 0 A14 lowest_node_id0 0 1 dA16 me
sh_offset_data206 0 Z1 220 2 3 0 0 0 0 0 0 0 1e3 1e-8 0 4 0 1 0 1 1 5 0 6 7 0 0
 0 8 9 0 0 0 0 0 0 0 0 81 255 2 2 210 10 1 11 0 0 0 0 12 70 11 CI9 list_type0 0
 1 uI10 notransmit0 0 1 lCCCDCCDI12 finger_index0 0 1 dI12 finger_block1012 0 CZ
3 0 4 T1 0 0 11 20 1 13 13 13 255 5 48 0 1 0 14 0 0 15 0 50 255 6 89 0 14 16 0 0
 +.0176851851851852 0 0 -1 0 0 0 0 1 31 255 7 93 0 9 17 0 0 +.0176851851851852 0
 0 -1 0 0 0 0 1 .015 19 9 CCCCCCI5 frame230 0 CA5 owner12 0 Z8 52 0 1 15 0 18 0
 V0 16 255 9 71 0 ?19 0 20 7 0 0 1 17 255 19 0 21 19 19 0 22 9 0 0 +16 20 66 0 ?
23 9 24 17 0 0 1 17 23 0 25 23 23 0 26 20 0 0 +16 24 61 0 ?27 20 28 29 0 0 1 31
 17 92 0 20 29 7 0 +-.01431481481481482 0 0 -1 0 0 0 0 1 .015 31 29 91 0 24 30 1
7 0 +-.0143148148148148 0 0 -1 0 0 0 0 1 .001 31 30 90 0 28 0 29 0 +-.0123148148
148148 0 0 -1 0 0 0 0 1 .001 16 28 56 0 ?31 24 0 30 0 0 1 17 31 0 32 31 31 0 33
 28 0 0 +15 255 32 58 0 31 34 0 17 33 0 35 33 33 0 31 28 0 0 -15 35 115 0 33 36
 37 14 255 36 64 38 ?34 39 35 5 40 -0 0 34 39 18 15 37 63 0 27 36 0 17 27 0 37 2
7 27 0 41 24 0 0 +17 41 0 42 41 41 0 27 24 0 0 -15 42 116 0 41 39 25 14 39 69 43
 ?36 44 42 5 45 -0 0 36 44 18 15 25 68 0 23 39 0 81 1 43 214 46 39 47 0 38 48 49
 14 44 74 48 ?39 14 50 5 16 -0 0 39 14 18 50 45 87 0 39 40 16 0 +-.0143148148148
1482 .015 0 1 0 0 0 0 -1 13 18 51 0 0 0 0 0 0 8 14 14 14 79 51 ?44 0 52 5 6 -0 0
 44 0 18 81 1 51 218 46 14 53 0 48 54 55 15 52 118 0 22 14 0 17 22 0 52 22 22 0
 19 9 0 0 -80 7 CCCCCDI12 legal_owners0 16 1 lCZ1 46 56 57 9000 1 1 1 1 1 1 1 1
 0 FFFFTFTFFFFFFFFF1 81 3 53 217 58 14 59 51 60 61 62 0 0 81 1 48 216 46 44 60 0
 43 51 63 81 1 54 220 46 34 61 0 51 0 64 82 255 1 55 1050542183 14 34 59 54 ?0 3
6 32 5 65 -0 0 0 36 18 81 3 61 219 58 34 66 54 53 0 67 0 0 82 1 64 1048182887 80
 3 58 68 69 9000 0 0 0 0 3 5 0 0 0 FFFFTFFFFFFFFFFF1 1 1 81 1 66 193 70 34 0 61
 71 0 72 82 6 67 0 654890604 31212626 0 0 0 80 1 70 0 73 8001 0 0 0 0 3 5 0 0 0
 FFFFTFTFFFFFFFFF2 81 1 71 192 70 36 0 74 75 66 76 83 255 3 72 .792156862745098
 .819607843137255 .933333333333333 81 3 74 211 58 36 71 38 0 47 77 0 0 81 1 75 1
91 70 39 0 47 78 71 79 83 3 76 .792156862745098 .819607843137255 .93333333333333
3 81 3 47 213 58 39 75 43 74 60 80 0 0 81 1 78 190 70 44 0 60 59 75 81 83 3 79 .
792156862745098 .819607843137255 .933333333333333 81 3 60 215 58 44 78 48 47 53
 82 0 0 81 1 59 189 70 14 0 53 0 78 83 83 3 81 .792156862745098 .819607843137255
 .933333333333333 83 3 83 .792156862745098 .819607843137255 .933333333333333 82
 6 82 0 654890604 31212626 0 0 0 82 6 80 0 654890604 31212626 0 0 0 81 1 38 212
 46 36 74 0 0 43 84 82 6 77 0 654890604 31212626 0 0 0 82 1 84 1048772711 79 255
 15 73 SDL/TYSA_COLOUR79 18 69 DOWNSTREAM_FACE_ID50 65 85 0 34 0 40 0 +-.0123148
148148148 .001 0 1 0 0 0 0 -1 51 255 40 86 0 36 65 45 0 +-.01953703703703705 0 0
 -1 0 0 .001 0 0 1 82 1 63 1049952359 82 6 62 0 654890604 31212626 0 0 0 79 14 5
7 SWEntUnchanged51 16 88 0 44 45 6 0 --.01953703703703705 0 0 -1 0 0 .015 0 0 1
 15 50 117 0 26 44 21 17 26 0 50 26 26 0 23 20 0 0 -15 21 73 0 19 44 0 82 1 49 1
049362535 19 15 47 0 1 0 8 5 0 S0 74 4 CI16 index_map_offset0 0 1 dCCZ20 13 11 0
 0 61 85 86 87 54 88 89 90 11 66 2 0 0 0 0 0 0 0 0 0 81 2 85 129 91 1 0 86 0 0 0
 92 81 2 86 133 93 1 85 87 0 0 0 94 81 2 87 134 95 1 86 88 0 0 96 0 81 1 88 140
 97 1 87 89 0 0 98 81 2 89 148 99 1 88 90 0 0 100 0 81 2 90 173 101 1 89 11 0 0
 0 102 81 2 11 176 103 1 90 2 0 0 0 0 80 2 103 104 105 9000 0 0 0 0 3 5 0 0 0 FF
TFFFFFFFFFFFFF9 1 79 16 105 BODY_RECIPE_200180 2 101 106 107 9000 0 0 0 0 3 5 0
 0 0 FFTFFFFFFFFFFFFF9 1 82 1 102 1 79 24 107 BODY_IN_LIGHTWEIGHT_PERM80 2 99 10
8 109 8004 0 0 0 0 3 5 0 0 0 FFTFFFFFFFFFFFFF2 3 83 1 100 1 79 16 109 SDL/TYSA_D
ENSITY80 1 97 110 111 9000 1 1 1 1 1 1 1 1 0 FFTFFFFFFFFFFFFF1 82 1 98 15930 79
 10 111 BODY_MATCH80 2 95 112 113 9000 0 0 0 0 3 5 0 0 0 FFTFTTTFFTFFFFFF3 3 84
 255 8 96 Revolve179 21 113 SWIMPLICITBODYNAME_ID80 2 93 114 115 9000 0 0 0 0 3
 5 0 0 0 FFTFFFFFFFFFFFFF9 1 82 1 94 40 79 30 115 LAST_BODY_MODIFYING_FEATURE_ID
80 2 91 116 117 9000 0 0 0 0 3 5 0 0 0 FFTFFFFFFFFFFFFF9 1 82 1 92 103 79 19 117
 ENT_TIME_STAMP_200180 2 10 118 119 9000 0 0 0 0 3 5 0 0 0 FFTFFFFFFFFFFFFF9 1 8
2 1 12 101 79 12 119 ATOM_ID_20011 0 
